<svg width="232" height="89" viewBox="0 0 232 89" fill="none" xmlns="http://www.w3.org/2000/svg">
<g clip-path="url(#clip0_15_640)">
<path d="M46.3995 25.3931L40.3439 29.1938V30.7491V53.1089L35.9205 50.5542V38.4463V31.5433L29.8639 34.9464V54.0531L46.3995 63.6064V58.9021H46.4005V33.9491L50.8166 36.2831V61.5567L56.8733 58.0995V39.4842L62.9362 42.6873V40.979V34.9464L46.3995 25.3931Z" fill="white"/>
<path d="M46.3995 25.3931V63.6064V58.9021H46.4006V33.9491L50.8167 36.2831V61.5567L56.8733 58.0995V39.4842L62.9362 42.6873V40.979V34.9464L46.3995 25.3931Z" fill="white"/>
<path d="M46.3975 71.3092L23.1987 57.9041V31.0961L46.3975 17.6973L69.5962 31.0961V57.9041L46.3975 71.3092ZM26.7763 55.8377L46.3975 67.1754L66.0238 55.8377V33.1625L46.3975 21.8259L26.7763 33.1625V55.8377Z" fill="white"/>
<path d="M46.3995 17.6929V21.8257L66.0238 33.1623V55.8375L46.3995 67.1751V71.3079L69.6004 57.9039V31.0959L46.3995 17.6929Z" fill="white"/>
<path d="M86.7435 48.3358V32.7915H91.9867V47.8768C91.9867 49.6152 92.8054 51.0904 95.5913 51.0904C98.3772 51.0904 99.1949 49.6152 99.1949 47.8768V32.7915H104.438V48.3338C104.438 53.2525 100.637 56.2038 95.5955 56.2038C90.5542 56.2038 86.7435 53.2546 86.7435 48.3358Z" fill="white"/>
<path d="M121.968 50.6969V55.7468H108.534V32.7915H113.776V50.6969H121.968Z" fill="white"/>
<path d="M137.697 37.8435H131.798V55.7489H126.555V37.8435H120.657V32.7915H137.697V37.8435Z" fill="white"/>
<path d="M175.051 37.8435H169.153V55.7489H163.91V37.8435H158.012V32.7915H175.051V37.8435Z" fill="white"/>
<path d="M192.089 50.6969V55.7468H177.671V32.7915H191.923V37.8414H182.912V41.6453H191.104V46.6369H182.911V50.6969H192.089Z" fill="white"/>
<path d="M208.8 50.6969V55.7468H195.369V32.7915H200.612V50.6969H208.8Z" fill="white"/>
<path d="M153.26 55.7472H158.995L151.197 32.7939H144.512L136.713 55.7472H142.448L143.164 53.4923L143.165 53.4902L143.594 52.1401H143.596L145.611 45.8295L147.854 38.7954L149.758 44.7645L152.112 52.1401H152.114L152.616 53.7172V53.7182L153.26 55.7472Z" fill="white"/>
</g>
<defs>
<clipPath id="clip0_15_640">
<rect width="232" height="89" fill="white"/>
</clipPath>
</defs>
</svg>
