<svg viewBox="0 0 14 14" fill="none" xmlns="http://www.w3.org/2000/svg">
<path d="M14 12.815L11.2815 10.0965C12.0894 9.03923 12.5695 7.71803 12.5695 6.28476C12.5695 2.81383 9.75569 0 6.28476 0C2.81383 0 0 2.81383 0 6.28476C0 9.75569 2.81383 12.5695 6.28476 12.5695C7.71803 12.5695 9.03923 12.0894 10.0965 11.2815L12.815 14L14 12.815ZM2.97653 9.59299C2.09282 8.70928 1.60611 7.53438 1.60611 6.28476C1.60611 5.03514 2.09282 3.86024 2.97653 2.97653C3.86024 2.09282 5.03514 1.60611 6.28476 1.60611C7.53438 1.60611 8.70928 2.09282 9.59299 2.97653C10.4767 3.86024 10.9634 5.03514 10.9634 6.28476C10.9634 7.53438 10.4767 8.70928 9.59299 9.59299C8.70928 10.4767 7.53438 10.9634 6.28476 10.9634C5.03514 10.9634 3.86024 10.4767 2.97653 9.59299Z" fill="#0A1E25"/>
</svg>
